<svg width="85" height="75" viewBox="0 0 85 75" fill="none" xmlns="http://www.w3.org/2000/svg">
<path fill-rule="evenodd" clip-rule="evenodd" d="M41.9777 6.72496L47.4444 2.89072C48.8942 1.87382 50.6991 1.37714 52.4619 1.50996C54.2248 1.64277 55.8012 2.39419 56.8444 3.59892L83.0667 33.8819C84.1098 35.0866 84.5343 36.646 84.2468 38.2169C83.9592 39.7878 82.9832 41.2417 81.5333 42.2586L37.8001 72.9325C36.3502 73.9494 34.5454 74.446 32.7825 74.3132C31.0197 74.1804 29.4433 73.429 28.4001 72.2243L2.1778 41.9413C1.13461 40.7366 0.710101 39.1772 0.997654 37.6063C1.28521 36.0354 2.26127 34.5815 3.71111 33.5646L9.17777 29.7304L3.93331 23.6738L7.57775 21.1176L12.8222 27.1742L38.3333 9.28112L33.0888 3.22453L36.7333 0.668372L41.9777 6.72496ZM35.8445 40.2317L24.9111 47.9002L22.2889 44.8719L33.2222 37.2034L35.8445 40.2317ZM55.0889 21.8664L44.1555 29.5349L46.7778 32.5632L57.7111 24.8947L55.0889 21.8664ZM43.7111 49.3166L32.7778 56.9851L30.1556 53.9568L41.0889 46.2883L43.7111 49.3166ZM54.6445 41.6481L65.5778 33.9796L62.9555 30.9513L52.0222 38.6198L54.6445 41.6481Z" fill="white"/>
</svg>
