<svg width="100" height="100" viewBox="0 0 100 100" fill="none" xmlns="http://www.w3.org/2000/svg">
<path fill-rule="evenodd" clip-rule="evenodd" d="M50 87.5002C70.7105 87.5002 87.5 70.7106 87.5 50.0002C87.5 29.2897 70.7105 12.5002 50 12.5002C29.2896 12.5002 12.5 29.2897 12.5 50.0002C12.5 70.7106 29.2896 87.5002 50 87.5002ZM50 91.6668C73.0125 91.6668 91.6667 73.0127 91.6667 50.0002C91.6667 26.9877 73.0125 8.3335 50 8.3335C26.9875 8.3335 8.33337 26.9877 8.33337 50.0002C8.33337 73.0127 26.9875 91.6668 50 91.6668Z" fill="white"/>
<path d="M25 74.2292C25 72.0771 26.6083 70.2583 28.75 70.0208C44.8229 68.2417 55.25 68.4021 71.2875 70.0604C72.0884 70.1445 72.8474 70.46 73.4719 70.9684C74.0964 71.4768 74.5593 72.156 74.8041 72.9232C75.0489 73.6903 75.065 74.5122 74.8505 75.2883C74.6359 76.0645 74.1999 76.7613 73.5958 77.2938C54.6687 93.7917 43.8521 93.5646 26.3333 77.3104C25.4792 76.5188 25 75.3938 25 74.2313V74.2292Z" fill="white"/>
<path fill-rule="evenodd" clip-rule="evenodd" d="M71.073 72.1316C55.1626 70.4858 44.8855 70.3316 28.9772 72.0921C28.4535 72.1531 27.9708 72.4051 27.6213 72.7999C27.2719 73.1947 27.0804 73.7045 27.0834 74.2316C27.0834 74.8275 27.3313 75.3921 27.7501 75.7837C36.4334 83.8379 43.0126 87.4775 49.4438 87.5004C55.898 87.5233 62.8313 83.9129 72.2272 75.7254C72.5257 75.4597 72.7406 75.113 72.8457 74.7275C72.9509 74.342 72.9418 73.9342 72.8195 73.5538C72.6973 73.1733 72.4671 72.8366 72.1571 72.5845C71.847 72.3324 71.4704 72.1758 71.073 72.1337V72.1316ZM28.5209 67.9504C44.7626 66.1525 55.3418 66.315 71.5043 67.9879C72.7091 68.1136 73.8511 68.588 74.7904 69.3528C75.7298 70.1175 76.4258 71.1396 76.7933 72.2939C77.1607 73.4482 77.1836 74.6845 76.8592 75.8516C76.5348 77.0187 75.8772 78.0659 74.9668 78.865C65.4355 87.1733 57.498 91.6983 49.4313 91.6671C41.3418 91.6379 33.7543 87.0358 24.9188 78.8379C24.2862 78.2487 23.782 77.5353 23.4375 76.7424C23.093 75.9495 22.9157 75.0941 22.9168 74.2296C22.9137 72.6763 23.4839 71.1765 24.5179 70.0175C25.552 68.8585 26.9774 68.1217 28.5209 67.9483V67.9504Z" fill="white"/>
<path d="M66.6667 41.6667C66.6667 46.0869 64.9108 50.3262 61.7852 53.4518C58.6595 56.5774 54.4203 58.3333 50 58.3333C45.5798 58.3333 41.3405 56.5774 38.2149 53.4518C35.0893 50.3262 33.3334 46.0869 33.3334 41.6667C33.3334 37.2464 35.0893 33.0072 38.2149 29.8816C41.3405 26.7559 45.5798 25 50 25C54.4203 25 58.6595 26.7559 61.7852 29.8816C64.9108 33.0072 66.6667 37.2464 66.6667 41.6667V41.6667Z" fill="white"/>
<path fill-rule="evenodd" clip-rule="evenodd" d="M50 54.1667C53.3152 54.1667 56.4947 52.8497 58.8389 50.5055C61.1831 48.1613 62.5 44.9819 62.5 41.6667C62.5 38.3515 61.1831 35.172 58.8389 32.8278C56.4947 30.4836 53.3152 29.1667 50 29.1667C46.6848 29.1667 43.5054 30.4836 41.1612 32.8278C38.817 35.172 37.5 38.3515 37.5 41.6667C37.5 44.9819 38.817 48.1613 41.1612 50.5055C43.5054 52.8497 46.6848 54.1667 50 54.1667V54.1667ZM50 58.3333C54.4203 58.3333 58.6595 56.5774 61.7852 53.4518C64.9108 50.3262 66.6667 46.0869 66.6667 41.6667C66.6667 37.2464 64.9108 33.0072 61.7852 29.8816C58.6595 26.7559 54.4203 25 50 25C45.5798 25 41.3405 26.7559 38.2149 29.8816C35.0893 33.0072 33.3334 37.2464 33.3334 41.6667C33.3334 46.0869 35.0893 50.3262 38.2149 53.4518C41.3405 56.5774 45.5798 58.3333 50 58.3333V58.3333Z" fill="white"/>
</svg>
