<svg width="79" height="75" viewBox="0 0 79 75" fill="none" xmlns="http://www.w3.org/2000/svg">
<path d="M74.3627 31.4093L60.4235 27.0834L50.9147 14.6187C48.6435 11.1456 45.1134 8.47055 40.7324 6.9028C36.3514 5.33505 31.2985 4.93864 26.1578 5.7594C25.8221 5.21616 25.4311 4.70366 24.9884 4.22652C24.1622 3.22475 23.0757 2.40766 21.7911 1.82197C20.5065 1.23627 19.049 0.893463 17.5019 0.813132C15.9548 0.732801 14.3485 0.916525 12.7747 1.3538C11.2009 1.79107 9.69059 2.47332 8.33 3.36155C6.92018 4.18522 5.67013 5.20867 4.65131 6.37341C3.6325 7.53815 2.8649 8.82134 2.39239 10.1496C1.91988 11.4779 1.75173 12.8252 1.89756 14.1146C2.04338 15.4039 2.50031 16.61 3.24224 17.6639C3.55066 18.2226 3.94309 18.7371 4.41161 19.1968C1.7137 23.2197 0.30944 27.6062 0.361181 31.849C0.412923 36.0919 1.91855 40.0179 4.704 43.1733L14.2129 55.6379L13.6908 68.8997C13.6468 70.0485 13.9703 71.1314 14.6282 72.0377C15.286 72.9441 16.2546 73.6416 17.4352 74.0588C18.6157 74.4761 19.9658 74.5982 21.3476 74.4128C22.7295 74.2273 24.0935 73.7409 25.3004 73.0032L34.9231 67.0571C37.3022 69.6907 40.9896 71.25 45.2115 71.4078C49.4334 71.5657 53.8616 70.3097 57.5669 67.9036C61.393 65.6559 64.2862 62.3878 65.6393 58.7851C66.9924 55.1824 66.7002 51.5251 64.8241 48.5807L74.4468 42.6346C75.6454 41.8859 76.6398 40.915 77.3285 39.821C78.0173 38.727 78.3757 37.5492 78.3671 36.4077C78.3586 35.2663 77.9834 34.2021 77.2798 33.324C76.5763 32.4458 75.5696 31.7851 74.3627 31.4093ZM10.0379 13.4648C9.57378 12.6699 9.53774 11.6949 9.93755 10.7489C10.3374 9.80279 11.1412 8.96097 12.1766 8.4039C13.1263 7.73432 14.288 7.36162 15.4126 7.3657C16.5372 7.36978 17.5353 7.75032 18.1927 8.42572C16.7868 9.20165 15.425 10.0431 14.1153 10.9452C12.7086 11.7201 11.3467 12.5616 10.0379 13.4648ZM53.7202 62.8612C51.8117 64.1484 49.5174 64.8628 47.2936 64.8621C45.0699 64.8615 43.0796 64.146 41.7188 62.8579L58.0284 52.7799C58.8752 54.3856 58.9021 56.3143 58.1038 58.1823C57.3056 60.0503 55.7406 61.7207 53.7202 62.8612ZM21.4538 67.9608L22.061 54.7058L22.0856 52.8506L11.4997 38.9741C9.18203 35.9612 8.05183 32.2998 8.23774 28.4066C8.56959 25.9872 9.63644 23.5687 11.3348 21.3857C13.0332 19.2027 15.3054 17.3293 17.9312 15.9472C20.3077 14.2384 23.0666 13.0029 25.9403 12.3607C28.8141 11.7184 31.7052 11.6912 34.3332 12.2817C38.4369 13.5242 41.8275 15.7889 44.119 18.8179L54.7049 32.6945L56.6375 33.3403L70.6002 37.5923L21.4538 67.9608Z" fill="#FFFEFE"/>
</svg>
