<svg width="78" height="69" viewBox="0 0 78 69" fill="none" xmlns="http://www.w3.org/2000/svg">
<path d="M52.9732 68.2387C54.0087 68.3379 55.051 68.2604 56.0393 68.0107C57.0276 67.761 57.942 67.3441 58.7292 66.7843L70.118 58.7369C70.9011 58.1802 71.3854 57.3748 71.4652 56.4967C71.5449 55.6186 71.2137 54.7391 70.5437 54.0504L56.1489 39.3379C55.4743 38.6524 54.5173 38.2152 53.4868 38.1216C52.4563 38.028 51.4361 38.2856 50.6491 38.8383L43.9281 43.5563C39.6964 42.1821 35.8587 40.0113 32.7063 37.2085C30.0472 34.0592 28.2368 30.4582 27.41 26.6738L34.0951 21.919C34.8781 21.3622 35.3624 20.5568 35.4422 19.6787C35.5219 18.8006 35.1907 17.9212 34.5208 17.2324L20.126 2.51993C19.4514 1.83449 18.4943 1.39721 17.4638 1.30361C16.4333 1.21001 15.4132 1.46769 14.6261 2.02037L3.27327 10.1045C2.48199 10.6602 1.83278 11.3481 1.36353 12.1283C0.894278 12.9085 0.614384 13.7652 0.540183 14.6486C-0.265967 27.4518 4.61574 40.1842 14.2122 50.3076C24.1734 60.1734 38.0133 66.5759 52.9732 68.2387ZM16.7525 9.35165L26.0731 18.878L20.6519 22.7087C20.1407 23.0458 19.7406 23.4896 19.4881 23.9995C19.2357 24.5094 19.139 25.069 19.2069 25.627C20.1606 31.3115 22.7798 36.738 26.8197 41.3991C31.4708 45.6297 37.2726 48.8094 43.6781 50.6382C44.3004 50.8084 44.9581 50.8449 45.5919 50.7445C46.2257 50.6442 46.8158 50.41 47.3092 50.0632L52.7395 46.1328L62.0601 55.6591L53.6551 61.5982C40.7454 60.1394 28.8025 54.6193 20.1767 46.1242C11.8994 37.3612 7.67869 26.3598 8.34744 15.2907L16.7525 9.35165ZM69.6733 32.892L77.4745 33.6006C77.9347 29.6578 77.4526 25.653 76.0574 21.8277C74.6622 18.0024 72.3827 14.4357 69.3564 11.3425C66.3301 8.24942 62.6195 5.69394 58.4484 3.83009C54.2773 1.96624 49.7319 0.832618 45.0862 0.497545L44.4824 7.14518C48.1115 7.36725 51.6699 8.22368 54.9365 9.66123C58.2031 11.0988 61.108 13.0867 63.4706 15.5015C65.8332 17.9162 67.603 20.7062 68.6701 23.6979C69.7372 26.6896 70.0787 29.8192 69.6733 32.892Z" fill="#153B50"/>
</svg>
