<svg width="64" height="64" viewBox="0 0 64 64" fill="none" xmlns="http://www.w3.org/2000/svg">
<path d="M32 62C48.5685 62 62 48.5685 62 32C62 15.4315 48.5685 2 32 2C15.4315 2 2 15.4315 2 32C2 48.5685 15.4315 62 32 62Z" fill="#FFDD67"/>
<path d="M28.6001 19.8001L16.5001 32.0001C15.7001 32.8001 12.9001 30.0001 13.7001 29.2001L25.9001 17.0001C26.6001 16.3001 29.4001 19.1001 28.6001 19.8001Z" fill="#664E27"/>
<path d="M25.8001 32.0001L13.7001 19.8001C12.9001 19.0001 15.7001 16.2001 16.5001 17.0001L28.7001 29.2001C29.4001 30.0001 26.6001 32.8001 25.8001 32.0001ZM50.3001 19.8001L38.2001 32.0001C37.4001 32.8001 34.6001 30.0001 35.4001 29.2001L47.6001 17.0001C48.3001 16.3001 51.1001 19.1001 50.3001 19.8001Z" fill="#664E27"/>
<path d="M47.5 32.0001L35.4 19.8001C34.6 19.0001 37.4 16.2001 38.2 17.0001L50.4 29.2001C51.1 30.0001 48.3 32.8001 47.5 32.0001Z" fill="#664E27"/>
<path d="M32 56C36.9706 56 41 51.9706 41 47C41 42.0294 36.9706 38 32 38C27.0294 38 23 42.0294 23 47C23 51.9706 27.0294 56 32 56Z" fill="#664E27"/>
<path d="M26 44C27.2 41.6 29.4 40 32 40C34.6 40 36.8 41.6 38 44H26Z" fill="white"/>
</svg>
