<svg width="36" height="36" viewBox="0 0 36 36" fill="none" xmlns="http://www.w3.org/2000/svg">
<path d="M32 36V32C32 28.686 29.315 26 26 26H10C8.4087 26 6.88258 26.6321 5.75736 27.7574C4.63214 28.8826 4 30.4087 4 32V36H32Z" fill="#3B88C3"/>
<path d="M14 26L18 31.001L22 26V22H14V26Z" fill="#7C533E"/>
<path d="M14 24C15.216 25.374 16.355 25.719 17.996 25.719C19.635 25.719 20.783 25.373 22 24V20H14V24Z" fill="#664131"/>
<path d="M21.5969 1.36778C19.6719 0.744778 15.1419 0.914778 14.0089 2.38678C11.0649 2.44378 7.61092 5.10478 7.15792 8.61478C6.70992 12.0898 7.70892 13.7028 8.06392 16.3158C8.46692 19.2758 10.1309 20.2228 11.4609 20.6188C13.3749 23.1478 15.4099 23.0398 18.8269 23.0398C25.4989 23.0398 28.6769 18.5758 28.9579 10.9928C29.1279 6.40678 26.4369 2.93378 21.5969 1.36778Z" fill="#0B0200"/>
<path d="M25.4131 11.318C24.7671 10.424 23.9411 9.70405 22.1291 9.45005C22.8091 9.76105 23.4601 10.837 23.5451 11.432C23.6301 12.027 23.7151 12.508 23.1771 11.913C21.0221 9.53105 18.6751 10.469 16.3501 9.01405C14.7261 7.99805 14.2311 6.87305 14.2311 6.87305C14.2311 6.87305 14.0331 8.37305 11.5701 9.90205C10.8561 10.345 10.0041 11.332 9.53211 12.79C9.19211 13.838 9.29811 14.772 9.29811 16.368C9.29811 21.028 13.1391 24.946 17.8761 24.946C22.6131 24.946 26.4541 20.993 26.4541 16.368C26.4531 13.469 26.1491 12.337 25.4131 11.318Z" fill="#7C533E"/>
<path d="M18.8271 18.7509H16.9211C16.7946 18.7509 16.6733 18.7006 16.5838 18.6112C16.4943 18.5217 16.4441 18.4004 16.4441 18.2739C16.4441 18.1474 16.4943 18.026 16.5838 17.9366C16.6733 17.8471 16.7946 17.7969 16.9211 17.7969H18.8271C18.9536 17.7969 19.0749 17.8471 19.1644 17.9366C19.2538 18.026 19.3041 18.1474 19.3041 18.2739C19.3041 18.4004 19.2538 18.5217 19.1644 18.6112C19.0749 18.7006 18.9536 18.7509 18.8271 18.7509Z" fill="#3D2E24"/>
<path d="M14.0619 15.4152C13.8091 15.4152 13.5667 15.3147 13.388 15.136C13.2093 14.9573 13.1089 14.7149 13.1089 14.4622V13.5092C13.1089 13.2564 13.2093 13.014 13.388 12.8353C13.5667 12.6566 13.8091 12.5562 14.0619 12.5562C14.3146 12.5562 14.557 12.6566 14.7358 12.8353C14.9145 13.014 15.0149 13.2564 15.0149 13.5092V14.4622C15.0149 14.7149 14.9145 14.9573 14.7358 15.136C14.557 15.3147 14.3146 15.4152 14.0619 15.4152ZM21.6869 15.4152C21.4341 15.4152 21.1917 15.3147 21.013 15.136C20.8343 14.9573 20.7339 14.7149 20.7339 14.4622V13.5092C20.7339 13.2564 20.8343 13.014 21.013 12.8353C21.1917 12.6566 21.4341 12.5562 21.6869 12.5562C21.9396 12.5562 22.182 12.6566 22.3608 12.8353C22.5395 13.014 22.6399 13.2564 22.6399 13.5092V14.4622C22.6399 14.7149 22.5395 14.9573 22.3608 15.136C22.182 15.3147 21.9396 15.4152 21.6869 15.4152Z" fill="black"/>
<path d="M17.9999 22.731C15.2459 22.731 14.3999 22.026 14.2589 21.883C14.133 21.7634 14.0597 21.5987 14.0552 21.425C14.0507 21.2513 14.1153 21.083 14.2349 20.957C14.3545 20.8311 14.5193 20.7578 14.693 20.7533C14.8666 20.7488 15.035 20.8134 15.1609 20.933C15.2129 20.97 15.8819 21.42 17.9999 21.42C20.1999 21.42 20.8359 20.935 20.8419 20.93C20.9024 20.8701 20.9741 20.8229 21.0531 20.7912C21.132 20.7594 21.2165 20.7438 21.3016 20.7452C21.3867 20.7466 21.4706 20.765 21.5485 20.7993C21.6263 20.8336 21.6965 20.8832 21.7549 20.945C21.8761 21.072 21.9425 21.2414 21.9399 21.4169C21.9373 21.5924 21.8658 21.7598 21.7409 21.883C21.5999 22.026 20.7539 22.731 17.9999 22.731Z" fill="#3D2E24"/>
<path d="M10 32.5H8C8 28.406 9.877 24 14 24V26C10.836 26 10 30.252 10 32.5ZM27 28.5H25C25 28.089 24.479 26 22 26V24C25.533 24 27 26.931 27 28.5Z" fill="#292F33"/>
<path d="M9 35.5C10.6569 35.5 12 34.1569 12 32.5C12 30.8431 10.6569 29.5 9 29.5C7.34315 29.5 6 30.8431 6 32.5C6 34.1569 7.34315 35.5 9 35.5Z" fill="#CCD6DD"/>
<path d="M9 34.5C10.1046 34.5 11 33.6046 11 32.5C11 31.3954 10.1046 30.5 9 30.5C7.89543 30.5 7 31.3954 7 32.5C7 33.6046 7.89543 34.5 9 34.5Z" fill="#F5F8FA"/>
<path d="M30 34H28C28 33.165 27.892 29 25.75 29C23.608 29 23.5 33.165 23.5 34H21.5C21.5 29.617 23.089 27 25.75 27C28.411 27 30 29.617 30 34Z" fill="#292F33"/>
<path d="M22.5 35C23.0523 35 23.5 34.5523 23.5 34C23.5 33.4477 23.0523 33 22.5 33C21.9477 33 21.5 33.4477 21.5 34C21.5 34.5523 21.9477 35 22.5 35Z" fill="#CCD6DD"/>
<path d="M29 35C29.5523 35 30 34.5523 30 34C30 33.4477 29.5523 33 29 33C28.4477 33 28 33.4477 28 34C28 34.5523 28.4477 35 29 35Z" fill="#CCD6DD"/>
</svg>
