<svg width="95" height="97" viewBox="0 0 95 97" fill="none" xmlns="http://www.w3.org/2000/svg">
<path d="M47.5001 17.7832C30.912 17.7832 17.4167 31.5626 17.4167 48.4999C17.4167 65.4371 30.912 79.2165 47.5001 79.2165C64.0881 79.2165 77.5834 65.4371 77.5834 48.4999C77.5834 31.5626 64.0881 17.7832 47.5001 17.7832Z" fill="url(#paint0_radial_217_1303)"/>
<path d="M41.6679 42.2299C41.6682 43.4195 41.3229 44.5824 40.6758 45.5716C40.0287 46.5609 39.1089 47.3319 38.0326 47.7872C36.9562 48.2426 35.7719 48.3618 34.6292 48.1298C33.4865 47.8978 32.4369 47.325 31.6131 46.4838C30.7893 45.6427 30.2283 44.571 30.0011 43.4042C29.7738 42.2375 29.8906 41.0282 30.3365 39.9292C30.7825 38.8302 31.5376 37.891 32.5065 37.2303C33.4753 36.5695 34.6142 36.217 35.7793 36.2173C37.3408 36.2187 38.838 36.8528 39.9421 37.9804C41.0462 39.108 41.6669 40.6368 41.6679 42.2313M65.4179 42.2299C65.4182 43.4195 65.0729 44.5824 64.4258 45.5716C63.7787 46.5609 62.8589 47.3319 61.7826 47.7872C60.7062 48.2426 59.5219 48.3618 58.3792 48.1298C57.2365 47.8978 56.1869 47.325 55.3631 46.4838C54.5393 45.6427 53.9783 44.571 53.751 43.4042C53.5238 42.2375 53.6406 41.0282 54.0865 39.9292C54.5325 38.8302 55.2876 37.891 56.2565 37.2303C57.2253 36.5695 58.3642 36.217 59.5293 36.2173C61.0908 36.2187 62.588 36.8528 63.6921 37.9804C64.7962 39.108 65.4169 40.6368 65.4179 42.2313" fill="white"/>
<path d="M47.5001 79.4859C64.2604 79.4859 77.8473 65.6129 77.8473 48.4998C77.8473 31.3866 64.2604 17.5137 47.5001 17.5137C30.7397 17.5137 17.1528 31.3866 17.1528 48.4998C17.1528 65.6129 30.7397 79.4859 47.5001 79.4859Z" stroke="black" stroke-width="2" stroke-miterlimit="10"/>
<path d="M41.9319 42.3877C41.9321 43.5772 41.5869 44.7402 40.9398 45.7294C40.2927 46.7186 39.3728 47.4896 38.2965 47.945C37.2202 48.4003 36.0358 48.5195 34.8931 48.2875C33.7504 48.0555 32.7008 47.4827 31.877 46.6415C31.0532 45.8004 30.4922 44.7287 30.265 43.5619C30.0377 42.3952 30.1545 41.1859 30.6005 40.0869C31.0464 38.988 31.8016 38.0487 32.7704 37.388C33.7392 36.7273 34.8781 36.3747 36.0432 36.375C39.293 36.375 41.9319 39.0694 41.9319 42.3877Z" stroke="black" stroke-width="2" stroke-miterlimit="10"/>
<path d="M38.6822 43.0102C38.6821 43.3642 38.6137 43.7146 38.481 44.0416C38.3483 44.3685 38.1538 44.6656 37.9086 44.9158C37.6634 45.166 37.3724 45.3644 37.0521 45.4998C36.7318 45.6352 36.3886 45.7048 36.042 45.7047C35.6953 45.7046 35.3521 45.6348 35.0319 45.4993C34.7117 45.3638 34.4208 45.1652 34.1757 44.9148C33.9307 44.6645 33.7363 44.3673 33.6037 44.0403C33.4712 43.7133 33.403 43.3628 33.4031 43.0089C33.4033 42.2941 33.6815 41.6087 34.1766 41.1034C34.6718 40.5981 35.3432 40.3143 36.0433 40.3145C36.7433 40.3146 37.4146 40.5988 37.9095 41.1043C38.4044 41.6099 38.6823 42.2955 38.6822 43.0102Z" fill="black"/>
<path d="M65.6819 42.3877C65.6821 43.5772 65.3369 44.7402 64.6898 45.7294C64.0427 46.7186 63.1228 47.4896 62.0465 47.945C60.9702 48.4003 59.7858 48.5195 58.6431 48.2875C57.5004 48.0555 56.4508 47.4827 55.627 46.6415C54.8032 45.8004 54.2422 44.7287 54.015 43.5619C53.7877 42.3952 53.9045 41.1859 54.3505 40.0869C54.7964 38.988 55.5516 38.0487 56.5204 37.388C57.4892 36.7273 58.6281 36.3747 59.7932 36.375C63.0417 36.375 65.6819 39.0694 65.6819 42.3877Z" stroke="black" stroke-width="2" stroke-miterlimit="10"/>
<path d="M62.4323 43.0103C62.4321 43.7251 62.1538 44.4105 61.6587 44.9158C61.1635 45.4211 60.4921 45.7049 59.792 45.7047C59.092 45.7046 58.4207 45.4204 57.9258 44.9149C57.4309 44.4093 57.153 43.7237 57.1532 43.0089C57.1533 42.2942 57.4316 41.6087 57.9267 41.1034C58.1719 40.8532 58.4629 40.6548 58.7832 40.5194C59.1035 40.384 59.4467 40.3144 59.7934 40.3145C60.14 40.3146 60.4832 40.3844 60.8034 40.5199C61.1236 40.6554 61.4146 40.854 61.6596 41.1044C61.9047 41.3547 62.099 41.6518 62.2316 41.9789C62.3642 42.3059 62.4323 42.6564 62.4323 43.0103ZM30.156 41.7641C30.156 38.4473 32.7949 35.7515 36.0434 35.7515C39.2918 35.7515 41.932 38.4459 41.932 41.7641" fill="black"/>
<path d="M53.906 41.7641C53.906 38.4473 56.5449 35.7515 59.7934 35.7515C63.0418 35.7515 65.682 38.4459 65.682 41.7641" fill="black"/>
<path d="M38.2639 57.9305C39.9581 57.071 43.5219 56.5428 47.2916 56.5859C50.7538 56.6264 53.8756 57.1437 55.4167 57.9305" stroke="black" stroke-width="2" stroke-miterlimit="10" stroke-linecap="round" stroke-linejoin="round"/>
<defs>
<radialGradient id="paint0_radial_217_1303" cx="0" cy="0" r="1" gradientUnits="userSpaceOnUse" gradientTransform="translate(47.5001 48.4999) rotate(90) scale(30.7167 30.0833)">
<stop stop-color="#F7BE2B"/>
<stop offset="1" stop-color="#F7BE2B" stop-opacity="0.9"/>
</radialGradient>
</defs>
</svg>
