<svg width="169" height="47" viewBox="0 0 169 47" fill="none" xmlns="http://www.w3.org/2000/svg">
<path d="M4.57031 8H10.8281L14.7773 24.125H15.0586L24.3281 8H30.5859L26.6016 32H21.6797L24.2813 16.3789H24.0703L15.3047 31.8828H11.9414L8.33203 16.3203H8.13281L5.50781 32H0.585937L4.57031 8ZM38.8447 32.3516C37.001 32.3516 35.4736 31.9766 34.2627 31.2266C33.0518 30.4687 32.2002 29.3984 31.708 28.0156C31.2236 26.625 31.1416 24.9805 31.4619 23.082C31.7744 21.2305 32.4033 19.6055 33.3486 18.207C34.3018 16.8086 35.4971 15.7187 36.9346 14.9375C38.3721 14.1562 39.9736 13.7656 41.7393 13.7656C42.9268 13.7656 44.001 13.957 44.9619 14.3398C45.9307 14.7148 46.7354 15.2852 47.376 16.0508C48.0166 16.8086 48.4541 17.7578 48.6885 18.8984C48.9307 20.0391 48.9268 21.375 48.6768 22.9062L48.4541 24.2773H33.2666L33.7471 21.1836H44.2471C44.3643 20.4648 44.3174 19.8281 44.1064 19.2734C43.8955 18.7187 43.5439 18.2852 43.0518 17.9727C42.5596 17.6523 41.9541 17.4922 41.2354 17.4922C40.501 17.4922 39.8135 17.6719 39.1729 18.0312C38.5322 18.3906 37.9932 18.8633 37.5557 19.4492C37.126 20.0273 36.8486 20.6562 36.7236 21.3359L36.1729 24.4062C36.0166 25.3516 36.0479 26.1367 36.2666 26.7617C36.4932 27.3867 36.8838 27.8555 37.4385 28.168C37.9932 28.4727 38.6963 28.625 39.5479 28.625C40.1025 28.625 40.6221 28.5469 41.1064 28.3906C41.5986 28.2344 42.0361 28.0039 42.4189 27.6992C42.8018 27.3867 43.1143 27 43.3564 26.5391L47.915 26.8438C47.4932 27.9531 46.8525 28.9219 45.9932 29.75C45.1338 30.5703 44.0986 31.2109 42.8877 31.6719C41.6846 32.125 40.3369 32.3516 38.8447 32.3516ZM57.0527 32.293C55.6777 32.293 54.4941 31.9414 53.502 31.2383C52.5176 30.5273 51.8145 29.4844 51.3926 28.1094C50.9785 26.7266 50.9395 25.0312 51.2754 23.0234C51.6191 20.9609 52.2363 19.2461 53.127 17.8789C54.0176 16.5039 55.0723 15.4766 56.291 14.7969C57.5098 14.1094 58.7793 13.7656 60.0996 13.7656C61.0996 13.7656 61.9082 13.9375 62.5254 14.2813C63.1504 14.6172 63.6309 15.0391 63.9668 15.5469C64.3027 16.0469 64.5371 16.5391 64.6699 17.0234H64.8223L66.334 8H71.3145L67.3301 32H62.4082L62.8887 29.1172H62.6777C62.3652 29.6172 61.9512 30.1133 61.4355 30.6055C60.9277 31.0898 60.3105 31.4922 59.584 31.8125C58.8652 32.1328 58.0215 32.293 57.0527 32.293ZM59.2559 28.3203C60.0527 28.3203 60.7715 28.1016 61.4121 27.6641C62.0527 27.2187 62.5918 26.5977 63.0293 25.8008C63.4668 25.0039 63.7715 24.0703 63.9434 23C64.123 21.9297 64.127 21 63.9551 20.2109C63.7832 19.4219 63.4473 18.8125 62.9473 18.3828C62.4551 17.9531 61.8027 17.7383 60.9902 17.7383C60.1699 17.7383 59.4434 17.9609 58.8105 18.4062C58.1855 18.8516 57.666 19.4687 57.252 20.2578C56.8457 21.0469 56.5566 21.9609 56.3848 23C56.2129 24.0469 56.2012 24.9727 56.3496 25.7773C56.498 26.5742 56.8145 27.1992 57.2988 27.6523C57.7832 28.0977 58.4355 28.3203 59.2559 28.3203Z" fill="#55C97C"/>
<g filter="url(#filter0_d_305_309)">
<path d="M66.5859 32L70.5703 8H80.0391C81.8516 8 83.3398 8.34766 84.5039 9.04297C85.6758 9.73047 86.4961 10.6875 86.9648 11.9141C87.4414 13.1328 87.5508 14.5391 87.293 16.1328C87.0273 17.7344 86.4492 19.1445 85.5586 20.3633C84.6758 21.5742 83.5273 22.5195 82.1133 23.1992C80.6992 23.8789 79.0664 24.2187 77.2148 24.2187H71.1797L71.8477 20.1523H77.0625C78.0469 20.1523 78.8867 19.9844 79.582 19.6484C80.2852 19.3047 80.8438 18.832 81.2578 18.2305C81.6719 17.6211 81.9414 16.9219 82.0664 16.1328C82.1992 15.3281 82.1563 14.6289 81.9375 14.0352C81.7188 13.4414 81.3164 12.9805 80.7305 12.6523C80.1523 12.3164 79.375 12.1484 78.3984 12.1484H74.9766L71.6602 32H66.5859ZM95.1943 32.4219C94.0537 32.4219 93.0186 32.207 92.0889 31.7773C91.1592 31.3398 90.4209 30.7109 89.874 29.8906C89.3271 29.0625 89.0537 28.0625 89.0537 26.8906C89.0537 25.8594 89.2568 25.0234 89.6631 24.3828C90.0693 23.7344 90.6123 23.2266 91.292 22.8594C91.9717 22.4922 92.7217 22.2187 93.542 22.0391C94.3701 21.8516 95.2021 21.7031 96.0381 21.5938C97.1318 21.4531 98.0186 21.3477 98.6982 21.2773C99.3857 21.1992 99.8857 21.0703 100.198 20.8906C100.519 20.7109 100.679 20.3984 100.679 19.9531V19.8594C100.679 18.7031 100.362 17.8047 99.7295 17.1641C99.1045 16.5234 98.1553 16.2031 96.8818 16.2031C95.5615 16.2031 94.5264 16.4922 93.7764 17.0703C93.0264 17.6484 92.499 18.2656 92.1943 18.9219L89.5693 17.9844C90.0381 16.8906 90.6631 16.0391 91.4443 15.4297C92.2334 14.8125 93.0928 14.3828 94.0225 14.1406C94.96 13.8906 95.8818 13.7656 96.7881 13.7656C97.3662 13.7656 98.0303 13.8359 98.7803 13.9766C99.5381 14.1094 100.269 14.3867 100.972 14.8086C101.683 15.2305 102.272 15.8672 102.741 16.7187C103.21 17.5703 103.444 18.7109 103.444 20.1406V32H100.679V29.5625H100.538C100.351 29.9531 100.038 30.3711 99.6006 30.8164C99.1631 31.2617 98.5811 31.6406 97.8545 31.9531C97.1279 32.2656 96.2412 32.4219 95.1943 32.4219ZM95.6162 29.9375C96.71 29.9375 97.6318 29.7227 98.3818 29.293C99.1396 28.8633 99.71 28.3086 100.093 27.6289C100.483 26.9492 100.679 26.2344 100.679 25.4844V22.9531C100.562 23.0937 100.304 23.2227 99.9053 23.3398C99.5146 23.4492 99.0615 23.5469 98.5459 23.6328C98.0381 23.7109 97.542 23.7812 97.0576 23.8437C96.5811 23.8984 96.1943 23.9453 95.8975 23.9844C95.1787 24.0781 94.5068 24.2305 93.8818 24.4414C93.2646 24.6445 92.7646 24.9531 92.3818 25.3672C92.0068 25.7734 91.8193 26.3281 91.8193 27.0312C91.8193 27.9922 92.1748 28.7187 92.8857 29.2109C93.6045 29.6953 94.5146 29.9375 95.6162 29.9375ZM115.289 32.375C113.789 32.375 112.465 31.9961 111.316 31.2383C110.168 30.4727 109.27 29.3945 108.621 28.0039C107.973 26.6055 107.648 24.9531 107.648 23.0469C107.648 21.1562 107.973 19.5156 108.621 18.125C109.27 16.7344 110.172 15.6602 111.328 14.9023C112.484 14.1445 113.82 13.7656 115.336 13.7656C116.508 13.7656 117.434 13.9609 118.113 14.3516C118.801 14.7344 119.324 15.1719 119.684 15.6641C120.051 16.1484 120.336 16.5469 120.539 16.8594H120.773V8H123.539V32H120.867V29.2344H120.539C120.336 29.5625 120.047 29.9766 119.672 30.4766C119.297 30.9687 118.762 31.4102 118.066 31.8008C117.371 32.1836 116.445 32.375 115.289 32.375ZM115.664 29.8906C116.773 29.8906 117.711 29.6016 118.477 29.0234C119.242 28.4375 119.824 27.6289 120.223 26.5977C120.621 25.5586 120.82 24.3594 120.82 23C120.82 21.6562 120.625 20.4805 120.234 19.4727C119.844 18.457 119.266 17.668 118.5 17.1055C117.734 16.5352 116.789 16.25 115.664 16.25C114.492 16.25 113.516 16.5508 112.734 17.1523C111.961 17.7461 111.379 18.5547 110.988 19.5781C110.605 20.5937 110.414 21.7344 110.414 23C110.414 24.2812 110.609 25.4453 111 26.4922C111.398 27.5312 111.984 28.3594 112.758 28.9766C113.539 29.5859 114.508 29.8906 115.664 29.8906ZM135.785 32.375C134.285 32.375 132.961 31.9961 131.813 31.2383C130.664 30.4727 129.766 29.3945 129.117 28.0039C128.469 26.6055 128.145 24.9531 128.145 23.0469C128.145 21.1562 128.469 19.5156 129.117 18.125C129.766 16.7344 130.668 15.6602 131.824 14.9023C132.98 14.1445 134.316 13.7656 135.832 13.7656C137.004 13.7656 137.93 13.9609 138.609 14.3516C139.297 14.7344 139.82 15.1719 140.18 15.6641C140.547 16.1484 140.832 16.5469 141.035 16.8594H141.27V8H144.035V32H141.363V29.2344H141.035C140.832 29.5625 140.543 29.9766 140.168 30.4766C139.793 30.9687 139.258 31.4102 138.563 31.8008C137.867 32.1836 136.941 32.375 135.785 32.375ZM136.16 29.8906C137.27 29.8906 138.207 29.6016 138.973 29.0234C139.738 28.4375 140.32 27.6289 140.719 26.5977C141.117 25.5586 141.316 24.3594 141.316 23C141.316 21.6562 141.121 20.4805 140.73 19.4727C140.34 18.457 139.762 17.668 138.996 17.1055C138.23 16.5352 137.285 16.25 136.16 16.25C134.988 16.25 134.012 16.5508 133.23 17.1523C132.457 17.7461 131.875 18.5547 131.484 19.5781C131.102 20.5937 130.91 21.7344 130.91 23C130.91 24.2812 131.105 25.4453 131.496 26.4922C131.895 27.5312 132.48 28.3594 133.254 28.9766C134.035 29.5859 135.004 29.8906 136.16 29.8906ZM151.266 38.75C150.797 38.75 150.379 38.7109 150.012 38.6328C149.645 38.5625 149.391 38.4922 149.25 38.4219L149.953 35.9844C150.625 36.1563 151.219 36.2188 151.734 36.1719C152.25 36.125 152.707 35.8945 153.105 35.4805C153.512 35.0742 153.883 34.4141 154.219 33.5L154.734 32.0938L148.078 14H151.078L156.047 28.3437H156.234L161.203 14H164.203L156.563 34.625C156.219 35.5547 155.793 36.3242 155.285 36.9336C154.777 37.5508 154.188 38.0078 153.516 38.3047C152.852 38.6016 152.102 38.75 151.266 38.75Z" fill="#0D0428"/>
</g>
<defs>
<filter id="filter0_d_305_309" x="62.5859" y="8" width="105.617" height="38.75" filterUnits="userSpaceOnUse" color-interpolation-filters="sRGB">
<feFlood flood-opacity="0" result="BackgroundImageFix"/>
<feColorMatrix in="SourceAlpha" type="matrix" values="0 0 0 0 0 0 0 0 0 0 0 0 0 0 0 0 0 0 127 0" result="hardAlpha"/>
<feOffset dy="4"/>
<feGaussianBlur stdDeviation="2"/>
<feComposite in2="hardAlpha" operator="out"/>
<feColorMatrix type="matrix" values="0 0 0 0 0 0 0 0 0 0 0 0 0 0 0 0 0 0 0.25 0"/>
<feBlend mode="normal" in2="BackgroundImageFix" result="effect1_dropShadow_305_309"/>
<feBlend mode="normal" in="SourceGraphic" in2="effect1_dropShadow_305_309" result="shape"/>
</filter>
</defs>
</svg>
