<svg width="70" height="66" viewBox="0 0 70 66" fill="none" xmlns="http://www.w3.org/2000/svg">
<g filter="url(#filter0_dd_217_1322)">
<path d="M22.6667 27.6L28.7917 21.5625L22.5938 15.4531L19.5312 18.4719L22.6667 21.4906L19.5312 24.5813L22.6667 27.6ZM59.4167 20.125C57.8125 20.125 56.4388 19.5615 55.2954 18.4345C54.154 17.3094 53.5833 15.9563 53.5833 14.375C53.5833 13.0813 53.9479 11.7032 54.6771 10.2408C55.4062 8.78025 56.9861 6.325 59.4167 2.875C61.8472 6.325 63.4271 8.78025 64.1562 10.2408C64.8854 11.7032 65.25 13.0813 65.25 14.375C65.25 15.9563 64.6793 17.3094 63.5379 18.4345C62.3946 19.5615 61.0208 20.125 59.4167 20.125ZM43.7396 27.6719L46.875 24.5813L43.7396 21.4906L46.8021 18.4719L43.7396 15.4531L37.5417 21.5625L43.7396 27.6719ZM33.1667 33.0625C31.9028 33.0625 30.6758 33.2063 29.4858 33.4938C28.2939 33.7812 27.1632 34.1885 26.0938 34.7156L15.6667 28.75C15.6667 27.9833 15.4722 27.2646 15.0833 26.5938C14.6944 25.9229 14.1597 25.3958 13.4792 25.0125C12.4097 24.4375 11.3043 24.3053 10.1629 24.6158C9.01958 24.9282 8.13194 25.5875 7.5 26.5938C6.91667 27.6479 6.7825 28.7375 7.0975 29.8626C7.41444 30.9896 8.08333 31.8646 9.10417 32.4875C9.78472 32.8708 10.5139 33.0625 11.2917 33.0625C12.0694 33.0625 12.7986 32.8708 13.4792 32.4875L22.1563 37.4469C21.3299 38.2615 20.589 39.1364 19.9338 40.0718C19.2765 41.0052 18.7292 42.0229 18.2917 43.125H23.1042C24.125 41.4 25.5104 40.0104 27.2604 38.9563C29.0104 37.9021 30.9792 37.375 33.1667 37.375C35.3542 37.375 37.3229 37.9021 39.0729 38.9563C40.8229 40.0104 42.2083 41.4 43.2292 43.125H48.0417C46.875 40.1542 44.9665 37.7344 42.3162 35.8656C39.6679 33.9969 36.6181 33.0625 33.1667 33.0625ZM33.1667 57.5C29.0833 57.5 25.2674 56.7448 21.7188 55.2345C18.1701 53.7261 15.0833 51.6781 12.4583 49.0906C9.83333 46.5031 7.76736 43.4604 6.26042 39.9625C4.75347 36.4646 4 32.7271 4 28.75C4 24.7729 4.75347 21.0354 6.26042 17.5375C7.76736 14.0396 9.83333 10.9969 12.4583 8.40938C15.0833 5.82188 18.1701 3.77296 21.7188 2.26262C25.2674 0.754208 29.0833 0 33.1667 0C36.7639 0 40.155 0.575 43.34 1.725C46.5231 2.875 49.3785 4.50417 51.9062 6.6125C51.2257 7.85833 50.6064 9.10417 50.0483 10.35C49.4883 11.5958 49.2083 12.9375 49.2083 14.375C49.2083 17.2021 50.2049 19.5864 52.1979 21.528C54.191 23.4677 56.5972 24.4375 59.4167 24.4375C59.8542 24.4375 60.2917 24.4135 60.7292 24.3656C61.1667 24.3177 61.5799 24.2458 61.9688 24.15C62.066 24.9167 62.1506 25.6718 62.2225 26.4155C62.2964 27.1573 62.3333 27.9354 62.3333 28.75C62.3333 32.7271 61.5672 36.4646 60.035 39.9625C58.5047 43.4604 56.4271 46.5031 53.8021 49.0906C51.1771 51.6781 48.0903 53.7261 44.5417 55.2345C40.9931 56.7448 37.2014 57.5 33.1667 57.5Z" fill="#FFD233"/>
</g>
<defs>
<filter id="filter0_dd_217_1322" x="0" y="0" width="69.25" height="65.5" filterUnits="userSpaceOnUse" color-interpolation-filters="sRGB">
<feFlood flood-opacity="0" result="BackgroundImageFix"/>
<feColorMatrix in="SourceAlpha" type="matrix" values="0 0 0 0 0 0 0 0 0 0 0 0 0 0 0 0 0 0 127 0" result="hardAlpha"/>
<feOffset dy="4"/>
<feGaussianBlur stdDeviation="2"/>
<feComposite in2="hardAlpha" operator="out"/>
<feColorMatrix type="matrix" values="0 0 0 0 0 0 0 0 0 0 0 0 0 0 0 0 0 0 0.25 0"/>
<feBlend mode="normal" in2="BackgroundImageFix" result="effect1_dropShadow_217_1322"/>
<feColorMatrix in="SourceAlpha" type="matrix" values="0 0 0 0 0 0 0 0 0 0 0 0 0 0 0 0 0 0 127 0" result="hardAlpha"/>
<feOffset dy="4"/>
<feGaussianBlur stdDeviation="2"/>
<feComposite in2="hardAlpha" operator="out"/>
<feColorMatrix type="matrix" values="0 0 0 0 0 0 0 0 0 0 0 0 0 0 0 0 0 0 0.25 0"/>
<feBlend mode="normal" in2="effect1_dropShadow_217_1322" result="effect2_dropShadow_217_1322"/>
<feBlend mode="normal" in="SourceGraphic" in2="effect2_dropShadow_217_1322" result="shape"/>
</filter>
</defs>
</svg>
