<svg width="72" height="76" viewBox="0 0 72 76" fill="none" xmlns="http://www.w3.org/2000/svg">
<path d="M35.7749 70.5375C20.0812 70.5375 3.1499 60.1469 3.1499 37.3469C3.1499 14.5469 20.0812 4.15625 35.7749 4.15625C44.4937 4.15625 52.5374 7.18438 58.4999 12.7063C64.9687 18.7625 68.3999 27.3125 68.3999 37.3469C68.3999 47.3813 64.9687 55.8719 58.4999 61.9281C52.5374 67.45 44.4374 70.5375 35.7749 70.5375Z" fill="url(#paint0_radial_217_1314)"/>
<path d="M62.7132 17.6167C65.7113 22.7229 67.2751 28.8029 67.2751 35.5658C67.2751 45.6001 63.8438 54.0908 57.3751 60.147C51.4126 65.6689 43.3126 68.7564 34.6501 68.7564C24.4913 68.7564 13.8376 64.3923 7.54883 55.1358C13.6013 65.6214 24.9863 70.5376 35.7751 70.5376C44.4376 70.5376 52.5376 67.4501 58.5001 61.9283C64.9688 55.872 68.4001 47.3814 68.4001 37.347C68.4001 29.7826 66.4482 23.0614 62.7132 17.6167Z" fill="#EB8F00"/>
<path d="M50.4787 46.9654C45.783 45.4824 40.901 44.7617 36 44.8279C31.0331 44.7791 26.0881 45.5299 21.3356 47.0545C19.689 49.8874 18.8079 53.1418 18.7875 56.4654C18.7806 56.9622 18.8666 57.4554 19.0405 57.9171C19.2143 58.3788 19.4727 58.7997 19.8007 59.1559C20.1288 59.5121 20.5201 59.7966 20.9524 59.9931C21.3847 60.1896 21.8494 60.2942 22.32 60.301C22.8881 60.307 23.4562 60.1764 23.9625 59.9092C27.7369 58.0448 31.8375 57.0354 36 56.9404C40.1681 57.0235 44.2687 58.0389 48.0375 59.9092C48.5878 60.1968 49.1989 60.3303 49.8122 60.297C50.4254 60.2637 51.0203 60.0647 51.5398 59.719C52.0593 59.3733 52.4859 58.8926 52.7788 58.3229C53.0717 57.7531 53.221 57.1136 53.2125 56.4654C53.178 53.0884 52.2294 49.7922 50.4787 46.9654Z" fill="#422B0D"/>
<path d="M50.4788 46.9655C47.0813 41.3249 41.1132 39.8999 36.0001 39.8999C30.4426 39.8999 24.5813 41.3665 21.3357 47.0249C26.0896 45.51 31.0346 44.7692 36.0001 44.828C40.8994 44.7627 45.7819 45.4812 50.4788 46.9655Z" fill="white"/>
<path d="M18.9732 18.3528C17.7357 18.5903 17.6794 20.4903 19.0294 20.5497C22.0107 20.5912 24.8907 19.4216 27.0732 17.2841C27.9057 16.5241 28.6088 15.6216 29.1544 14.6122C29.4807 14.1194 29.3682 13.4425 28.9013 13.0981C28.7905 13.0162 28.6655 12.9581 28.5335 12.9272C28.4014 12.8962 28.2649 12.8931 28.1316 12.9179C27.9984 12.9427 27.8712 12.995 27.7571 13.0718C27.643 13.1485 27.5444 13.2483 27.4669 13.3653L27.4107 13.4247C25.206 16.0259 22.2322 17.7629 18.9732 18.3528ZM44.1225 13.3653C44.045 13.2483 43.9464 13.1485 43.8324 13.0718C43.7183 12.995 43.591 12.9427 43.4578 12.9179C43.3246 12.8931 43.1881 12.8962 43.056 12.9272C42.9239 12.9581 42.799 13.0162 42.6882 13.0981C42.5773 13.1799 42.4828 13.284 42.4101 13.4044C42.3374 13.5248 42.2878 13.6592 42.2643 13.7998C42.2408 13.9404 42.2438 14.0845 42.2731 14.2239C42.3024 14.3633 42.3574 14.4952 42.435 14.6122C42.9807 15.6216 43.6838 16.5241 44.5163 17.2841C46.71 19.4037 49.5844 20.5734 52.56 20.5497C53.9663 20.4903 53.8538 18.5903 52.6163 18.3528C49.3221 17.7825 46.3188 16.019 44.1225 13.3653ZM19.3894 24.4744C19.3894 24.4744 26.73 25.2819 31.8038 30.9225C31.9363 31.0652 32.0408 31.2342 32.1112 31.4197C32.1815 31.6052 32.2164 31.8036 32.2138 32.0034C32.2112 32.2032 32.1711 32.4005 32.0959 32.5838C32.0207 32.7672 31.9119 32.9331 31.7757 33.0719C31.545 33.3094 31.2525 33.4578 30.9375 33.4934C28.9744 33.6834 26.0382 34.7462 21.9376 38.0297C21.9376 38.0297 19.7213 40.2562 17.9663 38.0297C16.5826 36.2484 19.0913 34.2297 19.0913 34.2297C19.0913 34.2297 22.0444 31.4034 25.5544 31.2075L19.0407 29.6519C18.3743 29.5572 17.7537 29.2411 17.2688 28.7494C16.9563 28.4722 16.734 28.0986 16.6331 27.6811C16.5322 27.2636 16.5578 26.8232 16.7063 26.4219C17.1169 25.2344 18.1913 24.4566 19.3894 24.4744ZM52.875 24.4744C52.875 24.4744 45.5625 25.2819 40.4663 30.9225C40.278 31.1271 40.148 31.3836 40.0912 31.6625C40.0345 31.9414 40.0532 32.2316 40.1454 32.4998C40.2375 32.768 40.3993 33.0034 40.6122 33.1791C40.8251 33.3549 41.0806 33.4638 41.3494 33.4934C43.3125 33.6834 46.2432 34.7462 50.3494 38.0297C50.3494 38.0297 52.56 40.2562 54.3207 38.0297C55.7044 36.2484 53.1957 34.2297 53.1957 34.2297C53.1957 34.2297 50.2425 31.4034 46.7325 31.2075L53.1788 29.6519C53.8469 29.5572 54.4692 29.2412 54.9563 28.7494C55.2677 28.4713 55.4892 28.0977 55.59 27.6805C55.6908 27.2634 55.6659 26.8234 55.5188 26.4219C55.3202 25.8505 54.9601 25.3572 54.4873 25.0089C54.0145 24.6606 53.4517 24.474 52.875 24.4744Z" fill="#422B0D"/>
<path d="M35.9663 39.0093C37.9463 39.0271 39.9207 39.2883 41.8501 39.7812C43.8076 40.274 45.6582 41.1468 47.312 42.358C48.9427 43.6127 50.2878 45.2354 51.2495 47.108C52.2113 48.9308 52.892 50.908 53.252 52.9565C53.432 53.9777 53.5276 55.0108 53.5276 56.0499C53.5501 56.5962 53.4938 57.1365 53.3588 57.6649C53.207 58.1993 52.9538 58.6921 52.622 59.1196C52.2869 59.5378 51.8758 59.8809 51.4131 60.1287C50.9503 60.3765 50.4452 60.524 49.9276 60.5624C49.4157 60.5921 48.8982 60.5208 48.4088 60.3546C47.9195 60.1646 47.5145 59.933 47.0701 59.7608C43.5801 58.0605 39.8071 57.1021 35.9663 56.9405C39.8251 56.9465 43.6501 57.754 47.2163 59.3155C47.6663 59.4996 48.1163 59.7312 48.5326 59.8737C48.9657 59.9983 49.4157 60.0399 49.8601 59.9983C50.7488 59.9033 51.5588 59.4343 52.1101 58.6921C52.3745 58.3299 52.5657 57.9083 52.6726 57.463C52.7738 57.0058 52.8076 56.5308 52.7682 56.0618C52.7288 55.0643 52.6051 54.0668 52.4026 53.093C51.992 51.1633 51.2888 49.3168 50.3101 47.6305C49.37 45.9564 48.0883 44.5244 46.5582 43.4387C45.0113 42.3937 43.2957 41.6574 41.4957 41.2774C39.6676 40.8915 37.8057 40.7193 35.9438 40.7727L35.9663 39.0093Z" fill="#EB8F00"/>
<path d="M36.1069 40.7905C34.245 40.7371 32.3831 40.9093 30.5606 41.2952C28.7606 41.6752 27.045 42.4115 25.4981 43.4565C23.9681 44.543 22.6856 45.974 21.7463 47.6483C20.7716 49.3367 20.0648 51.1819 19.6538 53.1108C19.4513 54.0846 19.3275 55.0821 19.2881 56.0796C19.2488 56.5487 19.2825 57.0237 19.3838 57.4808C19.4963 57.9262 19.6875 58.3418 19.9463 58.7099C20.2185 59.0766 20.5581 59.3813 20.9448 59.6058C21.3314 59.8303 21.7572 59.9699 22.1963 60.0162C22.6406 60.0577 23.0906 60.0162 23.5238 59.8915C23.9456 59.749 24.3956 59.5174 24.84 59.3333C28.4065 57.7717 32.2289 56.9648 36.09 56.9583C32.2538 57.1068 28.4794 58.0508 24.9863 59.7371C24.5475 59.939 24.1369 60.1705 23.6475 60.3308C23.1581 60.4971 22.6406 60.5683 22.1288 60.5387C21.3434 60.4815 20.5931 60.173 19.978 59.6543C19.363 59.1356 18.9124 58.4312 18.6863 57.6352C18.5513 57.1068 18.495 56.5665 18.5175 56.0202C18.5231 54.9812 18.6188 53.948 18.7931 52.9268C19.1644 50.8783 19.845 48.9071 20.8125 47.0902C21.7742 45.2176 23.1193 43.5949 24.75 42.3402C26.4094 41.1349 28.2656 40.268 30.2231 39.7812C32.1525 39.2883 34.1269 39.0271 36.1069 39.0093V40.7905Z" fill="#EB8F00"/>
<defs>
<radialGradient id="paint0_radial_217_1314" cx="0" cy="0" r="1" gradientUnits="userSpaceOnUse" gradientTransform="translate(35.7749 37.3469) scale(32.04 33.82)">
<stop offset="0.5" stop-color="#FDE030"/>
<stop offset="0.92" stop-color="#F7C02B"/>
<stop offset="1" stop-color="#F4A223"/>
</radialGradient>
</defs>
</svg>
